<svg width="85" height="85" viewBox="0 0 85 85" fill="none" xmlns="http://www.w3.org/2000/svg">
<circle cx="42.5" cy="42.5" r="42.5" fill="#194DD2"/>
<path d="M51.6041 52.868V56H33.4961V53.552L43.7561 43.652C45.0041 42.452 45.8441 41.42 46.2761 40.556C46.7081 39.668 46.9241 38.78 46.9241 37.892C46.9241 36.572 46.4561 35.552 45.5201 34.832C44.6081 34.088 43.2881 33.716 41.5601 33.716C38.7761 33.716 36.6281 34.628 35.1161 36.452L32.6681 34.328C33.6521 33.128 34.9361 32.192 36.5201 31.52C38.1281 30.848 39.9161 30.512 41.8841 30.512C44.5241 30.512 46.6241 31.148 48.1841 32.42C49.7441 33.668 50.5241 35.372 50.5241 37.532C50.5241 38.876 50.2361 40.148 49.6601 41.348C49.0841 42.548 47.9921 43.916 46.3841 45.452L38.6801 52.868H51.6041Z" fill="white"/>
</svg>
