<svg width="85" height="85" viewBox="0 0 85 85" fill="none" xmlns="http://www.w3.org/2000/svg">
<circle cx="42.5" cy="42.5" r="42.5" fill="white"/>
<path d="M41.6312 56.288C39.8552 56.288 38.1272 56.012 36.4472 55.46C34.7912 54.908 33.4352 54.164 32.3792 53.228L34.0352 50.384C34.8752 51.176 35.9672 51.824 37.3112 52.328C38.6552 52.832 40.0952 53.084 41.6312 53.084C43.5032 53.084 44.9552 52.688 45.9872 51.896C47.0432 51.08 47.5712 49.988 47.5712 48.62C47.5712 47.3 47.0672 46.244 46.0592 45.452C45.0752 44.636 43.5032 44.228 41.3432 44.228H39.3272V41.708L46.8152 32.492L47.3192 33.932H33.5312V30.8H50.1632V33.248L42.7112 42.428L40.8392 41.312H42.0272C45.0752 41.312 47.3552 41.996 48.8672 43.364C50.4032 44.732 51.1712 46.472 51.1712 48.584C51.1712 50 50.8232 51.296 50.1272 52.472C49.4312 53.648 48.3752 54.584 46.9592 55.28C45.5672 55.952 43.7912 56.288 41.6312 56.288Z" fill="#194DD2"/>
</svg>
